# xmcd CD database file
#
# Track frame offsets:
#	150
#	20194
#	54181
#	63331
#	71422
#	78243
#	84781
#	94268
#	101243
#	130233
#	140627
#	153413
#	173097
#	183184
#	197693
#
# Disc length: 2939 seconds
#
# Revision: 0
# Processed by: cddbd v1.5.1PL0 Copyright (c) Steve Scherf et al.
# Submitted via: CDex 1.50
#
DISCID=c30b790f
DTITLE=Hans Koller - The Hans Koller Concept
DYEAR=2000
DGENRE=Jazz
TTITLE0=Duo 1
TTITLE1=Duo 2
TTITLE2=Duo 3
TTITLE3=Solo 1
TTITLE4=Solo 2
TTITLE5=Solo 3
TTITLE6=Solo 4
TTITLE7=Solo 5
TTITLE8=Lush Life
TTITLE9=Duo 4
TTITLE10=Solo 6
TTITLE11=Duo 5
TTITLE12=Duo 6
TTITLE13=Duo 7
TTITLE14=Duo 8
EXTD=YEAR: 2000
EXTT0=
EXTT1=
EXTT2=
EXTT3=
EXTT4=
EXTT5=
EXTT6=
EXTT7=
EXTT8=
EXTT9=
EXTT10=
EXTT11=
EXTT12=
EXTT13=
EXTT14=
PLAYORDER=
